<svg xmlns="http://www.w3.org/2000/svg" width="100" height="100" overflow="visible">
    <path fill="#ffffff" d="M50 9.919922c-4.190927.0332-9.869746 1.215654-12.240234 2.203125-2.403953 1.001571-4.007027 2.001748-4.507813 4.505859l-1.802734 13.882813v14.160156c-.495042-.030105-.984271-.052975-1.449219-.056641-4.190927.0332-9.869746 1.215654-12.240234 2.203125-2.403953 1.001571-4.007027 2.001749-4.507813 4.50586l-1.802734 13.882812v19.128907h3.105469v3c0 3.657522 5.353515 3.657522 5.353515 0v-3H40.09375v3c0 3.657522 5.351563 3.657522 5.351562 0v-3h3.105469V65.207031l-1.802734-13.882812c-.131297-.656637-.34366-1.204542-.621094-1.681641h7.539063c-.172078.376952-.31913.783113-.414063 1.257813l-1.802734 13.882812v19.128906h3.105469v3c0 3.657522 5.353515 3.657522 5.353515 0v-3H80.09375v3c0 3.657522 5.351563 3.657522 5.351562 0v-3h3.105469V64.783203l-1.802734-13.882812c-.500695-2.50405-2.10386-3.504107-4.507813-4.50586-2.370003-.98747-8.049368-2.170082-12.240234-2.203125-.465511.0037-.953563.02646-1.449219.05664V30.511719l-1.802734-13.882813c-.500695-2.50405-2.10386-3.504106-4.507813-4.505859C59.870231 11.135577 54.190866 9.952965 50 9.919922zm-7.632812 3.503906h15.265624c1.502539 0 1.502539 2.253906 0 2.253906H42.367188c-1.502539 0-1.50254-2.253906 0-2.253906zm-4.050782 4.529297h23.367188c1.587264 0 2.002684.80794 2.195312 2.03125l1.402344 10.068359c.130883.96508-.147126 1.921875-1.480469 1.921875H36.201172c-1.333331 0-1.613322-.956796-1.482422-1.921875l1.404297-10.068359c.192756-1.22331.606216-2.03125 2.193359-2.03125zm-1.083984 20.556641c1.418056 0 2.568359 1.14835 2.568359 2.566406 0 1.418056-1.150303 2.568359-2.568359 2.568359s-2.566406-1.150303-2.566406-2.568359 1.14835-2.566406 2.566406-2.566406zm25.535156 0c1.418056 0 2.566406 1.14835 2.566406 2.566406 0 1.418056-1.14835 2.568359-2.566406 2.568359-1.418056 0-2.568359-1.150303-2.568359-2.568359s1.150303-2.566406 2.568359-2.566406zm5.783203 9.185546h9.082031c1.502539 0 1.502539 2.253907 0 2.253907h-12.1875v-.306641h3.105469zm-46.183593.423829h9.082031v1.523437h3.105469v.730469h-12.1875c-1.502539 0-1.502539-2.253907 0-2.253906zm35.949218 4.105468h1.777344v.416016c0 3.657522 5.351562 3.657522 5.351562 0v-.416016h16.238282c1.587264 0 2.002684.80794 2.195312 2.03125l1.402344 10.06836c.130883.96508-.147126 1.921875-1.480469 1.921875H56.201172c-1.333331 0-1.613322-.956796-1.482422-1.921875l1.404297-10.06836c.192756-1.22331.606216-2.03125 2.193359-2.03125zm-40 .423829h16.238282c.008 3.646543 5.345494 3.646543 5.353515 0h1.775391c1.587264 0 2.002684.807939 2.195312 2.03125l1.402344 10.068359c.130883.96508-.147126 1.921875-1.480469 1.921875H16.201172c-1.333331 0-1.613322-.956796-1.482422-1.921875l1.404297-10.068359c.192756-1.22331.606216-2.03125 2.193359-2.03125zm38.916016 20.130859c1.418056 0 2.568359 1.150303 2.568359 2.568359s-1.150303 2.56836-2.568359 2.56836-2.566406-1.150304-2.566406-2.56836c0-1.418056 1.14835-2.568359 2.566406-2.568359zm25.535156 0c1.418056 0 2.566406 1.150303 2.566406 2.568359s-1.14835 2.56836-2.566406 2.56836c-1.418056 0-2.568359-1.150304-2.568359-2.56836 0-1.418056 1.150303-2.568359 2.568359-2.568359zm-65.535156.423828c1.418056 0 2.568359 1.150303 2.568359 2.568359s-1.150303 2.56836-2.568359 2.56836-2.566406-1.150304-2.566406-2.56836c0-1.418056 1.14835-2.568359 2.566406-2.568359zm25.535156 0c1.418056 0 2.566406 1.150303 2.566406 2.568359s-1.14835 2.56836-2.566406 2.56836c-1.418056 0-2.568359-1.150304-2.568359-2.56836 0-1.418056 1.150303-2.568359 2.568359-2.568359z" overflow="visible"/>
</svg>