<svg xmlns="http://www.w3.org/2000/svg" width="100px" height="100px" overflow="visible">
    <path fill="#ffffff" d="m77.674 23.524c-0.82735-4.1377-3.4757-5.7927-7.448-7.448-3.9162-1.6317-13.301-3.5841-20.226-3.6387-6.9251 0.05486-16.309 2.007-20.226 3.6387-3.9723 1.655-6.6205 3.3102-7.448 7.448l-2.9791 22.94v31.609h5.1308v4.9568c0 6.0437 8.8444 6.0437 8.8444 0v-4.9568h33.355v4.9568c0 6.0437 8.8441 6.0437 8.8441 0v-4.9568h5.1307v-31.609zm-40.286-5.2963h25.224c2.4828 0 2.4828 3.724 0 3.724h-25.224c-2.4828 0-2.4828-3.724 0-3.724zm-8.4843 49.935c-2.3432 0-4.2429-1.8997-4.2429-4.2429 0-2.3432 1.8997-4.2426 4.2429-4.2426s4.2429 1.8994 4.2429 4.2426c0 2.3432-1.8997 4.2429-4.2429 4.2429zm20.798-19.282h-22.504c-2.2032 0-2.6645-1.5829-2.4482-3.1776l2.3186-16.637c0.31851-2.0214 1.0037-3.354 3.6263-3.354h38.611c2.6228 0 3.3078 1.3326 3.6261 3.354l2.3191 16.637c0.21627 1.5947-0.24498 3.1776-2.4482 3.1776zm21.394 19.282c-2.3432 0-4.2426-1.8997-4.2426-4.2429 0-2.3432 1.8994-4.2426 4.2426-4.2426s4.2426 1.8994 4.2426 4.2426c0 2.3432-1.8994 4.2429-4.2426 4.2429z" overflow="visible"/>
</svg>
