<svg xmlns="http://www.w3.org/2000/svg" width="32" height="32">
  <path fill="#fff" d="M7.274414 3.916992c-1.859187 0-3.357422 1.498235-3.357422 3.357422 0 1.859186 1.498235 3.355469 3.357422 3.355469.56189 0 1.082507-.150468 1.546875-.392579l12.941406 12.941407c-.242607.464735-.392578.986322-.392578 1.548828 0 1.859186 1.498235 3.355469 3.357422 3.355469 1.859186 0 3.355469-1.496283 3.355469-3.355469 0-1.859187-1.496283-3.357422-3.355469-3.357422-.562506 0-1.084093.149971-1.548828.392578L10.237305 8.821289c.24211-.464368.392578-.984985.392578-1.546875 0-1.859187-1.496283-3.357422-3.35547-3.357422z"/>
</svg>