<?xml version="1.0" encoding="UTF-8"?>
<svg width="32" height="32" version="1.1" xmlns="http://www.w3.org/2000/svg">
    <path d="m16 2.9395-4.4199 4.4199 1.0605 1.0605 2.3594-2.3594v8.9395h-8.9395l2.3594-2.3594-1.0605-1.0605-4.4199 4.4199 4.4199 4.4199 1.0605-1.0605-2.3594-2.3594h8.9395v8.9395l-2.3594-2.3594-1.0605 1.0605 4.4199 4.4199 4.4199-4.4199-1.0605-1.0605-2.3594 2.3594v-8.9395h8.9395l-2.3594 2.3594 1.0605 1.0605 4.4199-4.4199-4.4199-4.4199-1.0605 1.0605 2.3594 2.3594h-8.9395v-8.9395l2.3594 2.3594 1.0605-1.0605-4.4199-4.4199z" fill="#fff"/>
</svg>
